<svg xmlns="http://www.w3.org/2000/svg" id="Ebene_2" viewBox="0 0 99.73 99.73"><defs><style>.cls-1{fill:#1d1d1b}.cls-2{fill:#fff}.cls-3{fill:#b74349}.cls-4{fill:#13133c}.cls-5{fill:#a5141b}</style></defs><g id="Ebene_1-2"><path d="M99.73 49.87c0 3.59-.38 7.09-1.1 10.46l-.09.4c-.14.63-.29 1.25-.45 1.87-.16.62-.34 1.24-.53 1.85-6.23 20.43-25.22 35.28-47.69 35.28S8.32 84.81 2.12 64.31c-.16-.55-.32-1.11-.47-1.67-.2-.75-.38-1.51-.54-2.28l-.09-.39C.35 56.71 0 53.33 0 49.87 0 22.33 22.33 0 49.87 0s49.86 22.33 49.86 49.87Z" class="cls-2"/><path d="M8.16 48.2s-.03-.16-.14-.21c-.09-.07-.24 0-.17-.04.23-.11.7-.37.94-.5C29.96 35.93 56.98 26.26 81.03 33.3l-.15.58c-24.69-4.45-49.31 4.77-71.77 14.23-.29.11-.83.36-1.14.44.01 0-.12.03-.22-.03a.322.322 0 0 1-.17-.22l.59-.09Z" class="cls-4"/><path d="M34.7 23.87c8.65 17.67 26.86 29.37 46.24 31.51 4.33.59 9.18.73 13.57.72l.04.59c-3.04.36-6.11.58-9.18.59-15.45.07-31.21-5.85-41.59-17.53-4.14-4.6-7.6-9.84-9.65-15.68l.56-.21Z" class="cls-3"/><path d="M56.72 21.67c5.06 16.41-8.4 32.84-20.79 42.08l-.39-.45c1.36-1.53 2.79-2.97 4.17-4.45 8.97-10.04 18.49-22.78 16.45-36.98l.56-.2Z" class="cls-5"/><path d="M6.42 51.56c27.16 3.32 56.97 3.75 81.53-9.9l.32.5c-17.58 12.3-40.19 14.58-61.09 13.16-7.03-.56-14.03-1.46-20.89-3.17l.12-.58Z" class="cls-5"/><path d="M30.55 25.83c-4.14 10.85-7.54 22.56-5.01 34.19l-.56.2c-5.12-11.23-1.45-24.81 5.05-34.68l.52.29Z" class="cls-4"/><path d="M78.93 31.61c4.64 7.56 1.47 20.01-1.78 27.68l-.57-.16c.87-8.97 3.88-18.23 1.87-27.17l.48-.35Z" class="cls-3"/><path d="m98.54 60.73.09-.4c-.95-.24-1.91-.45-2.88-.65-.54-5.39-2.19-10.71-4.63-15.67-14.55-25.62-49.26-32.18-71.79-12.97C10.76 37.98 4.95 48.32 4.05 59.3c-1 .2-2.01.42-3.03.67l.09.39c3.01-.71 4.8-.97 8.67-1.13 7.79-.36 15.85.89 23.17 3.81-10.07-3.37-20.52-3.34-31.3-.4.15.56.31 1.12.47 1.67 2.53-.43 4.23-.51 7.71-.53 11.56-.13 23.23 3.27 32.31 10.43 2.02 1.63 4.03 3.4 5.49 5.54 1.28.06 3.15.09 4.43.03l.79-1.26c8.14-10.19 21.59-14.96 34.44-14.73 3.42.04 6.86.16 10.27.66.19-.61.37-1.23.53-1.85-11.09-3.12-23.19-3.08-33.88.87 10.51-4.81 23.05-5.4 34.33-2.74Zm-21.12-2.06c-.26.03-.53.06-.8.1-7.92 1.04-15.59 3.95-21.96 8.83-1.74 1.35-4.79 4.44-4.79 4.44-3.41-3.44-7.55-5.99-11.83-8.15-.47-.23-.93-.46-1.4-.68l-.72-.33c-3.54-1.61-7.03-2.78-10.52-3.55-.3-.06-.59-.13-.88-.18-6.52-1.32-13.05-1.24-19.91.05.7-2.34 1.55-4.64 2.54-6.86.09-.22.19-.44.29-.66.56-1.24 1.17-2.46 1.83-3.65.22-.4.44-.79.67-1.19 2.97-5.12 6.73-9.74 11.22-13.61 2.24-1.95 4.67-3.63 7.23-5.03a41.728 41.728 0 0 1 6.25-2.79c.24-.09.48-.18.72-.26 6.71-2.25 13.95-2.88 20.96-1.88.29.04.58.09.87.14 7.32 1.19 14.34 4.17 20.19 8.95h.01c.44.37.86.72 1.28 1.1.02.02.05.04.07.06 0 .01.01.01.01.01.58.52 1.15 1.04 1.71 1.6 2.29 2.21 4.37 4.61 6.23 7.2.14.2.29.4.42.6a56.21 56.21 0 0 1 6.83 13.17c.07.21.15.42.22.63.33.93.62 1.86.9 2.81-2.54-.49-5.09-.86-7.67-1.05-3.31-.26-6.66-.21-9.98.18Z" class="cls-1"/></g></svg>